<svg xmlns="http://www.w3.org/2000/svg" width="512" height="512" viewBox="0 0 1024 1024">
  <!--
    Dear Embeiu — Store icon (512). Identical geometry to app_icon.svg,
    rendered from the same 1024 viewBox so the two are pixel-consistent.
    No text inside the icon (unreadable at launcher sizes + bad practice).
  -->
  <defs>
    <linearGradient id="bg" x1="0" y1="0" x2="1" y2="1">
      <stop offset="0%"   stop-color="#FF6B9D"/>
      <stop offset="55%"  stop-color="#FF7E9C"/>
      <stop offset="100%" stop-color="#FF8FA3"/>
    </linearGradient>
    <radialGradient id="shineTL" cx="30%" cy="22%" r="58%">
      <stop offset="0%"   stop-color="#FFB6C1" stop-opacity="0.55"/>
      <stop offset="100%" stop-color="#FFB6C1" stop-opacity="0"/>
    </radialGradient>
    <radialGradient id="lavBR" cx="84%" cy="86%" r="46%">
      <stop offset="0%"   stop-color="#A78BFA" stop-opacity="0.28"/>
      <stop offset="100%" stop-color="#A78BFA" stop-opacity="0"/>
    </radialGradient>
    <linearGradient id="heart" x1="0" y1="0" x2="0" y2="1">
      <stop offset="0%"   stop-color="#FFFFFF"/>
      <stop offset="100%" stop-color="#FFF0F4"/>
    </linearGradient>
    <radialGradient id="gloss" cx="38%" cy="24%" r="50%">
      <stop offset="0%"   stop-color="#FFFFFF" stop-opacity="0.28"/>
      <stop offset="100%" stop-color="#FFFFFF" stop-opacity="0"/>
    </radialGradient>
    <filter id="heartShadow" x="-32%" y="-32%" width="164%" height="164%">
      <feDropShadow dx="0" dy="22" stdDeviation="36" flood-color="#E63956" flood-opacity="0.30"/>
      <feDropShadow dx="0" dy="6"  stdDeviation="12" flood-color="#C2185B" flood-opacity="0.16"/>
    </filter>
  </defs>

  <rect width="1024" height="1024" rx="230" fill="url(#bg)"/>
  <rect width="1024" height="1024" rx="230" fill="url(#lavBR)"/>
  <rect width="1024" height="1024" rx="230" fill="url(#shineTL)"/>

  <circle cx="512" cy="470" r="392" fill="none" stroke="#FFFFFF" stroke-opacity="0.07" stroke-width="2"/>
  <circle cx="512" cy="470" r="312" fill="none" stroke="#FFFFFF" stroke-opacity="0.05" stroke-width="1.5"/>

  <path d="M 512 752
           C 512 752 182 566 182 338
           C 182 240 256 166 346 166
           C 410 166 467 199 512 250
           C 557 199 614 166 678 166
           C 768 166 842 240 842 338
           C 842 566 512 752 512 752 Z"
    fill="url(#heart)" filter="url(#heartShadow)"/>

  <path d="M 762 250
           C 764 274 772 284 796 286
           C 772 288 764 298 762 322
           C 760 298 752 288 728 286
           C 752 284 760 274 762 250 Z"
    fill="#FFFFFF" fill-opacity="0.60"/>

  <rect width="1024" height="1024" rx="230" fill="url(#gloss)"/>
</svg>
